Simulation
nRows=23
nColumns=15
endheader
time  TH_x TH_y TH_z SC_y  SC_z  SC_x  AC_y  AC_z  AC_x  GH_y  GH_z  GH_yy  EL_x  PS_y
0.0  0.000000  0.000000  0.000000  -43.53615645752274  -1.9300782077862484  9.926059662580133  49.50759710565906  -2.804955970187884  -6.643596989278596  62.26134642896781  2.5362323155771884  -36.272807985617966  22.857398149940114  120.000000
0.0407894736842105  0.000000  0.000000  0.000000  -41.78675001673581  -0.22235186581383168  8.770891813860292  48.5659093283018  -2.0654837708213307  -5.1306317028319315  57.68160164780051  4.731939569173461  -32.14589843625535  23.130200811581762  120.000000
0.081578947368421  0.000000  0.000000  0.000000  -40.201498766817124  1.0736874000181513  7.637352955788906  47.6851360783679  -1.4088489533902022  -3.9540975820855944  54.64784693693962  6.835967656605052  -29.60238524822657  23.235601755291952  120.000000
0.1223684210526315  0.000000  0.000000  0.000000  -39.000910734872626  2.01112476537604  6.506970714118032  46.944409664970976  -0.7961128546343745  -2.9796573188762343  52.45877077367006  8.885109207163174  -27.95547722062822  23.21536879494763  120.000000
0.163157894736842  0.000000  0.000000  0.000000  -38.19523995052591  2.6604865838670286  5.376382915944915  46.37775345747338  -0.15614254217688833  -2.1165479254736015  50.916513654182765  10.836833795802173  -27.000067910421837  23.156908553366666  120.000000
0.2039473684210525  0.000000  0.000000  0.000000  -37.77551500586201  3.113087353763036  4.247765765641631  46.00343301324049  0.5619762259004585  -1.2644085122680981  49.8394542766093  12.672595636049282  -26.55371239770534  23.113414767429106  120.000000
0.244736842105263  0.000000  0.000000  0.000000  -37.69973193247279  3.437631924503894  3.107356795908786  45.81744243123983  1.4175183985042517  -0.3460519403090896  49.09100508601097  14.40256784228304  -26.510125724027358  23.11857208654962  120.000000
0.2855263157894735  0.000000  0.000000  0.000000  -37.894691495398526  3.683613590553131  1.945421654719547  45.801880296101785  2.4508120920380874  0.682617424689369  48.51136225045804  16.05516403327773  -26.737968643120237  23.191175177987386  120.000000
0.326315789473684  0.000000  0.000000  0.000000  -38.28487844973222  3.8895929773007256  0.763914747540217  45.92278735630524  3.675375320701759  1.8333461650078509  47.98588570032182  17.67253315722355  -27.14770624276928  23.343635671003497  120.000000
0.3671052631578945  0.000000  0.000000  0.000000  -38.806421962136675  4.083775009566769  -0.42810805148380565  46.139219532869745  5.077771972928526  3.097009315288114  47.42994955243089  19.30765420524476  -27.665012614650394  23.573258877590778  120.000000
0.407894736842105  0.000000  0.000000  0.000000  -39.39637187345755  4.298378369529099  -1.6161428545256904  46.401543455756986  6.615273513712416  4.456792725250315  46.79427875666559  21.006483632470847  -28.22868515258054  23.8520511176882  120.000000
0.4486842105263155  0.000000  0.000000  0.000000  -39.99018611562011  4.573704712946632  -2.7811396018589587  46.65974824819956  8.2274486835433  5.894585966541458  46.061966285414556  22.793659880643762  -28.790257348664994  24.13232645551791  120.000000
0.489473684210526  0.000000  0.000000  0.000000  -40.54557356910952  4.934447249451973  -3.8954386068626263  46.87611047867064  9.861649702134825  7.387319679263181  45.23759168333698  24.67304111094554  -29.30733429568466  24.36539747095445  120.000000
0.5302631578947365  0.000000  0.000000  0.000000  -41.04851677935705  5.379554905225921  -4.917381913950623  47.02862234373268  11.47708307477721  8.894996242020119  44.34122003471413  26.63821530045222  -29.7534890299782  24.52103275135925  120.000000
0.571052631578947  0.000000  0.000000  0.000000  -41.50389188149686  5.896609968316326  -5.792668375898128  47.10676804375795  13.038424390461381  10.366621652858157  43.407086606094154  28.67031036366522  -30.1216846118291  24.592620944853596  120.000000
0.6118421052631575  0.000000  0.000000  0.000000  -41.931777023234304  6.471004649682251  -6.4600415698503095  47.107128797456475  14.511418813879219  11.748491282289013  42.48296881300949  30.741741597385488  -30.42990087554266  24.59144696055685  120.000000
0.652631578947368  0.000000  0.000000  0.000000  -42.36572519283622  7.086301815473074  -6.855294725735174  47.035866315381504  15.863019494938706  12.988214528262665  41.62396897345725  32.822504154588046  -30.72343209710028  24.53346111041529  120.000000
0.6934210526315785  0.000000  0.000000  0.000000  -42.84472294126663  7.72592821935574  -6.917670217787632  46.90722957045135  17.061012637707403  14.039949273011224  40.88607715612566  34.88567354834401  -31.07143829130836  24.425908585461528  120.000000
0.734210526315789  0.000000  0.000000  0.000000  -43.40518315266455  8.374254070004799  -6.5963332188081925  46.744695510885926  18.076018246018805  14.869589267960462  40.31369164209166  36.90955654588137  -31.552309176574365  24.261325214598592  120.000000
0.7749999999999995  0.000000  0.000000  0.000000  -44.07419602086919  9.018256083458338  -5.857457980690537  46.57937623626325  18.885162192651794  15.460242859692146  39.92677715451382  38.876434746330304  -32.22699021002481  24.02236996094151  120.000000
0.81578947368421  0.000000  0.000000  0.000000  -44.863358567150435  9.650326978680628  -4.69279144599702  46.44575021216406  19.475614271650542  15.819140675422828  39.707881404265706  40.76806085675265  -33.10913903467961  23.69433919812045  120.000000
0.8565789473684206  0.000000  0.000000  0.000000  -45.76799032879936  10.268580508484625  -3.125996550855376  46.376278385652604  19.849846988929695  15.981806704200734  39.60053080351235  42.56037706276197  -34.14967364553236  23.275816002410693  120.000000
0.897368421052631  0.000000  0.000000  0.000000  -46.77099890087508  10.874170709217458  -1.2172855645063834  46.39712726953512  20.029671355006286  16.012266909876825  39.517767428767996  44.22191432612529  -35.24656052546619  22.784008475046658  120.000000
